<svg width="24" height="14" viewBox="0 0 24 14" fill="none" xmlns="http://www.w3.org/2000/svg">
<path d="M23.453 0.949375C23.6179 0.4025 23.453 0 22.66 0H20.0358C19.3675 0 19.06 0.345625 18.8952 0.730625C18.8952 0.730625 17.5586 3.92875 15.6695 6.0025C15.0591 6.60187 14.7784 6.79438 14.4443 6.79438C14.2794 6.79438 14.0255 6.60187 14.0255 6.055V0.949375C14.0255 0.293125 13.8384 0 13.2859 0H9.16022C8.74142 0 8.49192 0.30625 8.49192 0.590625C8.49192 1.21187 9.43646 1.35625 9.53448 3.10625V6.90375C9.53448 7.735 9.38299 7.88812 9.04884 7.88812C8.15777 7.88812 5.99246 4.67687 4.70932 1.00188C4.45091 0.28875 4.19695 0 3.52419 0H0.899983C0.151482 0 0 0.345625 0 0.730625C0 1.41312 0.891072 4.80375 4.14794 9.28375C6.3177 12.3419 9.37408 14 12.1542 14C13.825 14 14.0299 13.6325 14.0299 12.9981C14.0299 10.0756 13.8785 9.8 14.7161 9.8C15.1037 9.8 15.772 9.9925 17.3314 11.4669C19.1135 13.2169 19.4076 14 20.4056 14H23.0298C23.7783 14 24.157 13.6325 23.9387 12.9062C23.4397 11.3794 20.067 8.23812 19.9155 8.02812C19.5279 7.53812 19.6392 7.31938 19.9155 6.88188C19.9199 6.8775 23.1233 2.45 23.453 0.949375V0.949375Z" fill="white"/>
</svg>
