<svg width="19" height="18" viewBox="0 0 19 18" fill="none" xmlns="http://www.w3.org/2000/svg">
<path d="M6.35504 14.4936C6.35504 14.568 6.26694 14.6276 6.15585 14.6276C6.02944 14.6387 5.94133 14.5792 5.94133 14.4936C5.94133 14.4191 6.02944 14.3596 6.14052 14.3596C6.25544 14.3484 6.35504 14.408 6.35504 14.4936ZM5.16371 14.3261C5.1369 14.4005 5.21351 14.4861 5.32843 14.5085C5.42802 14.5457 5.54294 14.5085 5.56593 14.434C5.58891 14.3596 5.51613 14.274 5.40121 14.2405C5.30161 14.2144 5.19052 14.2516 5.16371 14.3261ZM6.85685 14.2628C6.74577 14.2889 6.66915 14.3596 6.68065 14.4452C6.69214 14.5196 6.79173 14.568 6.90665 14.542C7.01774 14.5159 7.09435 14.4452 7.08286 14.3707C7.07137 14.3 6.96794 14.2516 6.85685 14.2628ZM9.37742 0C4.06431 0 0 3.91929 0 9.08175C0 13.2095 2.67379 16.7417 6.49294 17.9848C6.98327 18.0704 7.15565 17.7764 7.15565 17.5345C7.15565 17.3037 7.14415 16.0308 7.14415 15.2491C7.14415 15.2491 4.4627 15.8074 3.8996 14.14C3.8996 14.14 3.4629 13.0569 2.83468 12.7777C2.83468 12.7777 1.95746 12.1934 2.89597 12.2045C2.89597 12.2045 3.8498 12.279 4.3746 13.1648C5.21351 14.6015 6.61936 14.1884 7.16714 13.9427C7.25524 13.3472 7.50423 12.934 7.78004 12.6884C5.63871 12.4576 3.47823 12.1561 3.47823 8.57555C3.47823 7.55199 3.76935 7.03835 4.38226 6.38328C4.28266 6.14134 3.95706 5.14384 4.48185 3.85602C5.28246 3.61409 7.125 4.86097 7.125 4.86097C7.89113 4.65253 8.71472 4.5446 9.53065 4.5446C10.3466 4.5446 11.1702 4.65253 11.9363 4.86097C11.9363 4.86097 13.7788 3.61037 14.5794 3.85602C15.1042 5.14756 14.7786 6.14134 14.679 6.38328C15.2919 7.04208 15.6673 7.55571 15.6673 8.57555C15.6673 12.1673 13.4111 12.4539 11.2698 12.6884C11.6222 12.9824 11.921 13.5407 11.921 14.4154C11.921 15.6697 11.9095 17.2218 11.9095 17.527C11.9095 17.769 12.0857 18.063 12.5722 17.9774C16.4028 16.7417 19 13.2095 19 9.08175C19 3.91929 14.6905 0 9.37742 0ZM3.72339 12.8373C3.67359 12.8745 3.68508 12.9601 3.7502 13.0308C3.81149 13.0904 3.8996 13.1164 3.9494 13.068C3.99919 13.0308 3.9877 12.9452 3.92258 12.8745C3.86129 12.8149 3.77319 12.7889 3.72339 12.8373ZM3.30968 12.5358C3.28286 12.5842 3.32117 12.6437 3.39778 12.6809C3.45907 12.7182 3.53569 12.707 3.5625 12.6549C3.58931 12.6065 3.55101 12.547 3.4744 12.5097C3.39778 12.4874 3.33649 12.4986 3.30968 12.5358ZM4.55081 13.8608C4.48952 13.9092 4.5125 14.0209 4.6006 14.0916C4.68871 14.1772 4.7998 14.1884 4.8496 14.1288C4.8994 14.0804 4.87641 13.9688 4.7998 13.898C4.71552 13.8124 4.60061 13.8013 4.55081 13.8608ZM4.11411 13.3137C4.05282 13.3509 4.05282 13.4477 4.11411 13.5333C4.1754 13.6189 4.27883 13.6561 4.32863 13.6189C4.38992 13.5705 4.38992 13.4737 4.32863 13.3881C4.275 13.3025 4.1754 13.2653 4.11411 13.3137Z" fill="white"/>
</svg>
