<svg width="40" height="39" viewBox="0 0 40 39" fill="none" xmlns="http://www.w3.org/2000/svg">
<path d="M18.6833 0.237382L2.43016 6.28314C0.968939 6.82571 0 8.22089 0 9.77108V27.2185C0 28.6292 0.804845 29.9159 2.07072 30.5437L18.3239 38.6047C19.3788 39.1318 20.6212 39.1318 21.6761 38.6047L37.9293 30.5437C39.203 29.9159 40 28.6214 40 27.2185V9.77108C40 8.22089 39.0311 6.83346 37.5698 6.29089L21.3167 0.245133C20.4727 -0.0804076 19.5351 -0.0804076 18.6833 0.237382ZM20.0039 5.05074L35.0068 10.6314V10.7167L20.0039 16.7625L5.00098 10.7167V10.6314L20.0039 5.05074ZM22.5044 32.6442V21.103L35.0068 16.0649V26.4434L22.5044 32.6442Z" fill="white"/>
</svg>
